<svg id="SvgjsSvg1065" width="288" height="288" xmlns="http://www.w3.org/2000/svg" version="1.1" xmlns:xlink="http://www.w3.org/1999/xlink" xmlns:svgjs="http://svgjs.com/svgjs"><defs id="SvgjsDefs1066"></defs><g id="SvgjsG1067"><svg xmlns="http://www.w3.org/2000/svg" width="288" height="288" fill="none" viewBox="0 0 24 24"><path fill="#000000" d="M16.44 3.10156C14.63 3.10156 13.01 3.98156 12 5.33156C10.99 3.98156 9.37 3.10156 7.56 3.10156C4.49 3.10156 2 5.60156 2 8.69156C2 9.88156 2.19 10.9816 2.52 12.0016C4.1 17.0016 8.97 19.9916 11.38 20.8116C11.72 20.9316 12.28 20.9316 12.62 20.8116C15.03 19.9916 19.9 17.0016 21.48 12.0016C21.81 10.9816 22 9.88156 22 8.69156C22 5.60156 19.51 3.10156 16.44 3.10156Z" class="color292D32 svgShape"></path></svg></g></svg>