<?xml version="1.0" encoding="utf-8"?>
<svg viewBox="0 116.116 288 59.884" xmlns="http://www.w3.org/2000/svg">
  <path fill="#000000" d="M 0 32 L 34.3 26.7 C 68.6 21 137 11 206 42.7 C 274.3 75 343 149 411 160 C 480 171 549 117 617 90.7 C 685.7 64 754 64 823 53.3 C 891.4 43 960 21 1029 37.3 C 1097.1 53 1166 107 1234 154.7 C 1302.9 203 1371 245 1406 266.7 L 1440 288 L 1440 320 L 1405.7 320 C 1371.4 320 1303 320 1234 320 C 1165.7 320 1097 320 1029 320 C 960 320 891 320 823 320 C 754.3 320 686 320 617 320 C 548.6 320 480 320 411 320 C 342.9 320 274 320 206 320 C 137.1 320 69 320 34 320 L 0 320 Z" class="colorE3F2FD svgShape" transform="matrix(-0.2, 0, 0, -0.2, 288, 180.116309)"/>
</svg>